# xmcd
#
# Track frame offsets: 
#        150
#        21155
#        41448
#        61598
#        81241
#        101897
#        125153
#        150417
#        169831
#        199886
#
# Disc length: 2917 seconds
#
# Revision: 0
# Processed by: cddbd v1.5.2PL0 Copyright (c) Steve Scherf et al.
# Submitted via: ExactAudioCopy v0.95b4
#
DISCID=7f0b630a
DTITLE=Black Majesty - Stargazer
DYEAR=2012
DGENRE=Power Metal
TTITLE0=Falling
TTITLE1=Lost Horizon
TTITLE2=Voice Of Change
TTITLE3=Killing Hand
TTITLE4=Journey To The Soul
TTITLE5=Holy Killers
TTITLE6=Symphony Of Death
TTITLE7=Edge Of The World
TTITLE8=Stargazer
TTITLE9=Shine
EXTD=
EXTT0=
EXTT1=
EXTT2=
EXTT3=
EXTT4=
EXTT5=
EXTT6=
EXTT7=
EXTT8=
EXTT9=
PLAYORDER=
